HIERARCHY
ROOT mixamorig:Hips
{
	OFFSET 0.000000 85.230415 0.000000
	CHANNELS 6 Xposition Yposition Zposition Zrotation Yrotation Xrotation 
	JOINT mixamorig:Spine
	{
		OFFSET -0.000014 7.868595 1.166200
		CHANNELS 3 Zrotation Yrotation Xrotation
		JOINT mixamorig:Spine1
		{
			OFFSET 0.000000 8.307600 0.241180
			CHANNELS 3 Zrotation Yrotation Xrotation
			JOINT mixamorig:Spine2
			{
				OFFSET 0.000000 7.469998 -0.455969
				CHANNELS 3 Zrotation Yrotation Xrotation
				JOINT mixamorig:Neck
				{
					OFFSET 0.000000 21.623920 -3.130763
					CHANNELS 3 Zrotation Yrotation Xrotation
					JOINT mixamorig:Head
					{
						OFFSET 0.000000 8.979096 1.007916
						CHANNELS 3 Zrotation Yrotation Xrotation
						JOINT mixamorig:HeadTop_End
						{
							OFFSET 0.000000 36.978806 0.701265
							CHANNELS 3 Zrotation Yrotation Xrotation
							End Site
							{
								OFFSET 0.000000 0.000000 0.000000
							}
						}
						JOINT mixamorig:HairB
						{
							OFFSET -6.414200 28.771164 21.708258
							CHANNELS 3 Zrotation Yrotation Xrotation
							End Site
							{
								OFFSET 0.000000 0.000000 0.000000
							}
						}
						JOINT mixamorig:HairA
						{
							OFFSET -11.484100 27.496475 17.498951
							CHANNELS 3 Zrotation Yrotation Xrotation
							End Site
							{
								OFFSET 0.000000 0.000000 0.000000
							}
						}
						JOINT mixamorig:Bow_Left
						{
							OFFSET -6.807600 33.586777 20.752766
							CHANNELS 3 Zrotation Yrotation Xrotation
							End Site
							{
								OFFSET 0.000000 0.000000 0.000000
							}
						}
						JOINT mixamorig:Bow_Right
						{
							OFFSET -11.133100 30.313980 19.500957
							CHANNELS 3 Zrotation Yrotation Xrotation
							End Site
							{
								OFFSET 0.000000 0.000000 0.000000
							}
						}
						JOINT mixamorig:HairC
						{
							OFFSET 2.525900 31.959274 20.608562
							CHANNELS 3 Zrotation Yrotation Xrotation
							JOINT mixamorig:HairC1
							{
								OFFSET 1.733735 -3.232010 3.632423
								CHANNELS 3 Zrotation Yrotation Xrotation
								End Site
								{
									OFFSET 0.000000 0.000000 0.000000
								}
							}
						}
						JOINT mixamorig:Ponytail
						{
							OFFSET -0.181100 31.348724 -13.427048
							CHANNELS 3 Zrotation Yrotation Xrotation
							JOINT mixamorig:Ponytail1
							{
								OFFSET -0.746532 2.567368 -7.327436
								CHANNELS 3 Zrotation Yrotation Xrotation
								JOINT mixamorig:Ponytail2
								{
									OFFSET -0.357839 -10.803711 -7.221615
									CHANNELS 3 Zrotation Yrotation Xrotation
									End Site
									{
										OFFSET 0.000000 0.000000 0.000000
									}
								}
							}
						}
					}
				}
				JOINT mixamorig:LeftShoulder
				{
					OFFSET 4.215800 16.566912 -4.092373
					CHANNELS 3 Zrotation Yrotation Xrotation
					JOINT mixamorig:LeftArm
					{
						OFFSET 8.521194 -0.267406 -1.717659
						CHANNELS 3 Zrotation Yrotation Xrotation
						JOINT mixamorig:LeftForeArm
						{
							OFFSET 21.262897 0.000002 -0.000001
							CHANNELS 3 Zrotation Yrotation Xrotation
							JOINT mixamorig:LeftHand
							{
								OFFSET 21.154701 -0.000003 -0.000001
								CHANNELS 3 Zrotation Yrotation Xrotation
								JOINT mixamorig:LeftHandThumb1
								{
									OFFSET 4.109039 -1.962593 2.610258
									CHANNELS 3 Zrotation Yrotation Xrotation
									JOINT mixamorig:LeftHandThumb2
									{
										OFFSET 3.101486 -1.790642 1.790644
										CHANNELS 3 Zrotation Yrotation Xrotation
										JOINT mixamorig:LeftHandThumb3
										{
											OFFSET 3.038742 -1.754417 1.754420
											CHANNELS 3 Zrotation Yrotation Xrotation
											JOINT mixamorig:LeftHandThumb4
											{
												OFFSET 2.539978 -1.466461 1.466458
												CHANNELS 3 Zrotation Yrotation Xrotation
												End Site
												{
													OFFSET 0.000000 0.000000 0.000000
												}
											}
										}
									}
								}
								JOINT mixamorig:LeftHandIndex1
								{
									OFFSET 11.845871 -0.683540 3.729384
									CHANNELS 3 Zrotation Yrotation Xrotation
									JOINT mixamorig:LeftHandIndex2
									{
										OFFSET 3.283096 0.000000 -0.000000
										CHANNELS 3 Zrotation Yrotation Xrotation
										JOINT mixamorig:LeftHandIndex3
										{
											OFFSET 3.323807 0.000000 -0.000000
											CHANNELS 3 Zrotation Yrotation Xrotation
											JOINT mixamorig:LeftHandIndex4
											{
												OFFSET 3.020599 0.000000 -0.000000
												CHANNELS 3 Zrotation Yrotation Xrotation
												End Site
												{
													OFFSET 0.000000 0.000000 0.000000
												}
											}
										}
									}
								}
								JOINT mixamorig:LeftHandMiddle1
								{
									OFFSET 12.082413 0.000000 -0.000000
									CHANNELS 3 Zrotation Yrotation Xrotation
									JOINT mixamorig:LeftHandMiddle2
									{
										OFFSET 3.410500 0.000000 0.000000
										CHANNELS 3 Zrotation Yrotation Xrotation
										JOINT mixamorig:LeftHandMiddle3
										{
											OFFSET 3.312202 0.000000 0.000000
											CHANNELS 3 Zrotation Yrotation Xrotation
											JOINT mixamorig:LeftHandMiddle4
											{
												OFFSET 3.438499 0.000000 0.000000
												CHANNELS 3 Zrotation Yrotation Xrotation
												End Site
												{
													OFFSET 0.000000 0.000000 0.000000
												}
											}
										}
									}
								}
								JOINT mixamorig:LeftHandRing1
								{
									OFFSET 12.470573 0.087585 -2.973213
									CHANNELS 3 Zrotation Yrotation Xrotation
									JOINT mixamorig:LeftHandRing2
									{
										OFFSET 3.053307 0.000000 0.000000
										CHANNELS 3 Zrotation Yrotation Xrotation
										JOINT mixamorig:LeftHandRing3
										{
											OFFSET 3.295898 0.000000 0.000000
											CHANNELS 3 Zrotation Yrotation Xrotation
											JOINT mixamorig:LeftHandRing4
											{
												OFFSET 3.727997 0.000000 0.000000
												CHANNELS 3 Zrotation Yrotation Xrotation
												End Site
												{
													OFFSET 0.000000 0.000000 0.000000
												}
											}
										}
									}
								}
								JOINT mixamorig:LeftHandPinky1
								{
									OFFSET 11.691048 -0.779549 -5.760270
									CHANNELS 3 Zrotation Yrotation Xrotation
									JOINT mixamorig:LeftHandPinky2
									{
										OFFSET 2.861702 0.000000 0.000000
										CHANNELS 3 Zrotation Yrotation Xrotation
										JOINT mixamorig:LeftHandPinky3
										{
											OFFSET 2.863403 0.000000 0.000000
											CHANNELS 3 Zrotation Yrotation Xrotation
											JOINT mixamorig:LeftHandPinky4
											{
												OFFSET 2.545403 0.000000 0.000000
												CHANNELS 3 Zrotation Yrotation Xrotation
												End Site
												{
													OFFSET 0.000000 0.000000 0.000000
												}
											}
										}
									}
								}
							}
							JOINT mixamorig:LeftWristTwist
							{
								OFFSET 10.565701 0.000000 -0.000000
								CHANNELS 3 Zrotation Yrotation Xrotation
								End Site
								{
									OFFSET 0.000000 0.000000 0.000000
								}
							}
						}
						JOINT mixamorig:LeftUpArmTwist
						{
							OFFSET 10.646198 0.000000 -0.000000
							CHANNELS 3 Zrotation Yrotation Xrotation
							End Site
							{
								OFFSET 0.000000 0.000000 0.000000
							}
						}
					}
				}
				JOINT mixamorig:Right_Breast
				{
					OFFSET -2.562200 12.208893 5.100423
					CHANNELS 3 Zrotation Yrotation Xrotation
					End Site
					{
						OFFSET 0.000000 0.000000 0.000000
					}
				}
				JOINT mixamorig:Left_Breast
				{
					OFFSET 2.562200 12.208893 5.100423
					CHANNELS 3 Zrotation Yrotation Xrotation
					End Site
					{
						OFFSET 0.000000 0.000000 0.000000
					}
				}
				JOINT mixamorig:RightShoulder
				{
					OFFSET -4.215800 16.567416 -4.092373
					CHANNELS 3 Zrotation Yrotation Xrotation
					JOINT mixamorig:RightArm
					{
						OFFSET -8.521288 -0.267902 -1.717664
						CHANNELS 3 Zrotation Yrotation Xrotation
						JOINT mixamorig:RightForeArm
						{
							OFFSET -21.262793 -0.000002 0.000001
							CHANNELS 3 Zrotation Yrotation Xrotation
							JOINT mixamorig:RightHand
							{
								OFFSET -21.154800 0.000000 -0.000001
								CHANNELS 3 Zrotation Yrotation Xrotation
								JOINT mixamorig:RightHandThumb1
								{
									OFFSET -4.108955 -1.962654 2.610195
									CHANNELS 3 Zrotation Yrotation Xrotation
									JOINT mixamorig:RightHandThumb2
									{
										OFFSET -3.101406 -1.790596 1.790599
										CHANNELS 3 Zrotation Yrotation Xrotation
										JOINT mixamorig:RightHandThumb3
										{
											OFFSET -3.038822 -1.754463 1.754464
											CHANNELS 3 Zrotation Yrotation Xrotation
											JOINT mixamorig:RightHandThumb4
											{
												OFFSET -2.539749 -1.466324 1.466325
												CHANNELS 3 Zrotation Yrotation Xrotation
												End Site
												{
													OFFSET 0.000000 0.000000 0.000000
												}
											}
										}
									}
								}
								JOINT mixamorig:RightHandIndex1
								{
									OFFSET -11.845840 -0.684052 3.729363
									CHANNELS 3 Zrotation Yrotation Xrotation
									JOINT mixamorig:RightHandIndex2
									{
										OFFSET -3.283096 0.000000 -0.000000
										CHANNELS 3 Zrotation Yrotation Xrotation
										JOINT mixamorig:RightHandIndex3
										{
											OFFSET -3.323807 0.000000 -0.000000
											CHANNELS 3 Zrotation Yrotation Xrotation
											JOINT mixamorig:RightHandIndex4
											{
												OFFSET -3.020599 0.000000 0.000000
												CHANNELS 3 Zrotation Yrotation Xrotation
												End Site
												{
													OFFSET 0.000000 0.000000 0.000000
												}
											}
										}
									}
								}
								JOINT mixamorig:RightHandMiddle1
								{
									OFFSET -12.082314 0.000000 0.000000
									CHANNELS 3 Zrotation Yrotation Xrotation
									JOINT mixamorig:RightHandMiddle2
									{
										OFFSET -3.410606 0.000000 0.000000
										CHANNELS 3 Zrotation Yrotation Xrotation
										JOINT mixamorig:RightHandMiddle3
										{
											OFFSET -3.312195 0.000000 0.000000
											CHANNELS 3 Zrotation Yrotation Xrotation
											JOINT mixamorig:RightHandMiddle4
											{
												OFFSET -3.438499 0.000000 0.000000
												CHANNELS 3 Zrotation Yrotation Xrotation
												End Site
												{
													OFFSET 0.000000 0.000000 0.000000
												}
											}
										}
									}
								}
								JOINT mixamorig:RightHandRing1
								{
									OFFSET -12.470573 0.087166 -2.973210
									CHANNELS 3 Zrotation Yrotation Xrotation
									JOINT mixamorig:RightHandRing2
									{
										OFFSET -3.053299 0.000000 0.000000
										CHANNELS 3 Zrotation Yrotation Xrotation
										JOINT mixamorig:RightHandRing3
										{
											OFFSET -3.295898 0.000000 0.000000
											CHANNELS 3 Zrotation Yrotation Xrotation
											JOINT mixamorig:RightHandRing4
											{
												OFFSET -3.727997 0.000000 0.000000
												CHANNELS 3 Zrotation Yrotation Xrotation
												End Site
												{
													OFFSET 0.000000 0.000000 0.000000
												}
											}
										}
									}
								}
								JOINT mixamorig:RightHandPinky1
								{
									OFFSET -11.691017 -0.779953 -5.760294
									CHANNELS 3 Zrotation Yrotation Xrotation
									JOINT mixamorig:RightHandPinky2
									{
										OFFSET -2.861603 0.000000 0.000000
										CHANNELS 3 Zrotation Yrotation Xrotation
										JOINT mixamorig:RightHandPinky3
										{
											OFFSET -2.863403 0.000000 0.000000
											CHANNELS 3 Zrotation Yrotation Xrotation
											JOINT mixamorig:RightHandPinky4
											{
												OFFSET -2.545303 0.000000 0.000000
												CHANNELS 3 Zrotation Yrotation Xrotation
												End Site
												{
													OFFSET 0.000000 0.000000 0.000000
												}
											}
										}
									}
								}
							}
							JOINT mixamorig:RightWristTwist
							{
								OFFSET -10.565701 0.000000 0.000000
								CHANNELS 3 Zrotation Yrotation Xrotation
								End Site
								{
									OFFSET 0.000000 0.000000 0.000000
								}
							}
						}
						JOINT mixamorig:RightUpArmTwist
						{
							OFFSET -10.646093 0.000000 0.000001
							CHANNELS 3 Zrotation Yrotation Xrotation
							End Site
							{
								OFFSET 0.000000 0.000000 0.000000
							}
						}
					}
				}
			}
		}
		JOINT mixamorig:Belly
		{
			OFFSET 0.000000 -0.538567 3.357786
			CHANNELS 3 Zrotation Yrotation Xrotation
			End Site
			{
				OFFSET 0.000000 0.000000 0.000000
			}
		}
	}
	JOINT mixamorig:LeftUpLeg
	{
		OFFSET 8.267015 -7.995487 -0.379100
		CHANNELS 3 Zrotation Yrotation Xrotation
		JOINT mixamorig:LeftLeg
		{
			OFFSET -0.000034 -32.369440 0.062314
			CHANNELS 3 Zrotation Yrotation Xrotation
			JOINT mixamorig:LeftFoot
			{
				OFFSET 0.000024 -35.030462 -2.208349
				CHANNELS 3 Zrotation Yrotation Xrotation
				JOINT mixamorig:LeftToeBase
				{
					OFFSET 1.232905 -9.835773 10.854839
					CHANNELS 3 Zrotation Yrotation Xrotation
					JOINT mixamorig:LeftToe_End
					{
						OFFSET 0.210410 0.001970 7.008142
						CHANNELS 3 Zrotation Yrotation Xrotation
						End Site
						{
							OFFSET 0.000000 0.000000 0.000000
						}
					}
				}
			}
		}
	}
	JOINT mixamorig:RightUpLeg
	{
		OFFSET -8.266986 -7.995517 -0.379100
		CHANNELS 3 Zrotation Yrotation Xrotation
		JOINT mixamorig:RightLeg
		{
			OFFSET 0.000002 -32.369437 0.062314
			CHANNELS 3 Zrotation Yrotation Xrotation
			JOINT mixamorig:RightFoot
			{
				OFFSET 0.000001 -35.030467 -2.208349
				CHANNELS 3 Zrotation Yrotation Xrotation
				JOINT mixamorig:RightToeBase
				{
					OFFSET -1.232895 -9.835700 10.854908
					CHANNELS 3 Zrotation Yrotation Xrotation
					JOINT mixamorig:RightToe_End
					{
						OFFSET -0.214257 0.001952 7.007725
						CHANNELS 3 Zrotation Yrotation Xrotation
						End Site
						{
							OFFSET 0.000000 0.000000 0.000000
						}
					}
				}
			}
		}
	}
	JOINT mixamorig:SkirtA
	{
		OFFSET 11.243096 1.931320 -10.868500
		CHANNELS 3 Zrotation Yrotation Xrotation
		JOINT mixamorig:SkirtA1
		{
			OFFSET 2.094878 -7.760521 -3.754759
			CHANNELS 3 Zrotation Yrotation Xrotation
			End Site
			{
				OFFSET 0.000000 0.000000 0.000000
			}
		}
	}
	JOINT mixamorig:SkirtB
	{
		OFFSET -0.000008 4.335800 -15.692000
		CHANNELS 3 Zrotation Yrotation Xrotation
		JOINT mixamorig:SkirtB1
		{
			OFFSET 0.000000 -9.729668 -3.399943
			CHANNELS 3 Zrotation Yrotation Xrotation
			End Site
			{
				OFFSET 0.000000 0.000000 0.000000
			}
		}
	}
	JOINT mixamorig:SkirtC
	{
		OFFSET -11.243104 1.931381 -10.868500
		CHANNELS 3 Zrotation Yrotation Xrotation
		JOINT mixamorig:SkirtC1
		{
			OFFSET -1.996108 -7.801628 -3.723248
			CHANNELS 3 Zrotation Yrotation Xrotation
			End Site
			{
				OFFSET 0.000000 0.000000 0.000000
			}
		}
	}
}
MOTION
Frames: 4
Frame Time: 0.016667
-90.627319 80.253746 88.932220 109.556487 -14.677665 -68.017581 -3.132918 3.962648 2.614798 -7.208274 7.635421 4.626340 -7.196235 7.738767 4.556185 -10.206594 4.916396 1.853704 -24.728008 15.502842 9.298645 0.000001 0.000003 0.000000 -0.000002 0.000004 -0.000004 0.000000 0.000000 -0.000003 0.000007 0.000000 -0.000003 0.000000 0.000002 0.000002 0.000001 0.000004 -0.000001 -0.000003 -0.000004 0.000005 -0.000001 0.000003 0.000002 0.000005 -0.000002 0.000003 -0.000002 0.000002 0.000003 -27.850784 8.293650 1.421420 -28.197021 20.780060 -22.893395 1.442856 0.172575 -2.079718 -6.850387 1.706358 51.955390 0.395232 -10.637928 -3.219711 7.097299 26.180093 10.021637 14.893302 9.533338 -3.708637 -0.000004 0.000002 -0.000000 -25.343610 3.391904 -1.142045 -15.810259 1.599261 -0.222077 -16.438390 1.661099 -0.239962 0.000000 -0.000002 -0.000001 -27.543818 4.735544 -1.697644 -24.860176 2.466873 -0.543813 -25.718205 2.546236 -0.581348 0.000000 0.000000 0.000001 -31.948001 5.624957 -2.080179 -29.028321 2.846750 -0.737102 -29.908312 2.925058 -0.781410 -0.000001 0.000000 0.000000 -26.021383 7.633629 -3.740822 -23.385300 2.329192 -0.482086 -30.215251 2.952209 -0.797154 0.000001 -0.000004 0.000001 0.000000 -0.000001 0.000000 -0.000000 0.000002 -0.000001 -0.000001 0.000000 0.000001 -0.000001 0.000000 0.000001 16.931552 23.177036 -1.725860 75.088718 55.734503 79.472832 7.097987 52.185438 5.398768 5.841379 23.341712 48.356005 -2.222976 24.562969 -17.489199 -14.474544 -38.676403 16.389442 -14.676857 -0.597934 -6.857313 0.000000 0.000003 0.000002 12.679648 -4.758442 -0.566152 13.535949 -1.092312 -0.129630 13.534040 -1.092150 -0.129605 0.000001 -0.000003 -0.000000 26.718660 -5.498288 -1.478982 27.977478 -2.188545 -0.545280 30.002204 -2.332580 -0.625140 -0.000001 0.000000 0.000000 35.682146 -6.780979 -2.163356 33.814631 -2.595684 -0.789119 35.835282 -2.730538 -0.883031 -0.000001 0.000000 0.000000 45.199717 -7.642153 -3.498708 41.014098 -3.060088 -1.144780 40.872368 -3.051381 -1.137220 -0.000003 -0.000001 0.000000 -0.000002 0.000003 -0.000001 0.000000 0.000000 -0.000002 -0.000002 0.000000 0.000001 41.211253 35.288211 -22.671651 -0.210200 -7.618265 23.211298 9.530031 22.618235 43.867639 0.000000 -0.000004 7.564579 -0.000003 0.000002 0.000002 -29.259654 -45.652774 -71.342122 -0.934879 5.430343 32.850645 -2.543514 -19.552902 -24.087739 -0.000002 -0.000002 -2.201411 0.000000 0.000003 0.000000 -0.000002 -0.000000 -0.000004 0.000000 -0.000002 0.000000 0.000001 0.000000 0.000000 0.000001 -0.000002 -0.000003 0.000001 0.000001 -0.000002 -0.000002 0.000001 -0.000000 
-91.221237 80.253746 89.428329 110.491798 -14.291017 -69.018849 -3.001589 3.892906 2.918902 -6.989593 7.717785 5.227802 -6.976045 7.824818 5.158713 -10.305015 4.904335 2.344254 -24.550558 15.274283 9.606936 0.000000 -0.000001 0.000000 -0.000003 -0.000002 0.000000 -0.000001 0.000002 -0.000000 0.000006 -0.000005 -0.000001 -0.000002 0.000001 0.000005 0.000001 -0.000003 -0.000000 0.000003 -0.000000 0.000004 0.000001 -0.000002 0.000003 0.000003 0.000001 0.000004 -0.000004 0.000003 0.000002 -26.467118 8.129746 1.358955 -31.223906 23.044639 -23.116490 1.554338 0.244521 -2.226309 -10.705473 5.842175 50.677943 -0.676939 -11.456514 -2.407813 8.065213 28.671498 10.865624 15.279721 11.041231 -3.015154 -0.000004 0.000001 0.000003 -29.404691 3.457864 -1.418657 -18.774742 1.889059 -0.312333 -19.464461 1.955737 -0.335455 -0.000005 -0.000004 0.000002 -32.186384 5.091387 -2.101679 -29.604092 2.898062 -0.765961 -30.552024 2.981903 -0.814587 0.000000 0.000001 0.000000 -37.471893 6.163601 -2.591021 -34.575220 3.328247 -1.036110 -35.545848 3.409389 -1.093152 0.000001 -0.000001 -0.000001 -30.517599 8.606797 -4.552044 -27.930937 2.748141 -0.683559 -35.950333 3.442908 -1.117334 0.000001 0.000000 0.000000 0.000000 0.000000 -0.000002 0.000000 0.000000 -0.000002 0.000001 0.000000 0.000000 0.000001 0.000000 0.000000 17.283097 23.108685 -1.771506 72.242456 52.438030 75.980776 6.954124 52.111480 5.297276 3.728778 25.723166 46.082334 -2.177539 25.047342 -17.728686 -14.903529 -39.353861 16.792131 -14.690702 -0.416419 -6.944550 0.000002 0.000002 0.000005 12.967483 -4.818544 -0.582505 13.921928 -1.122829 -0.137100 13.917071 -1.122469 -0.136995 0.000002 0.000000 0.000000 27.434575 -5.574558 -1.531050 28.798355 -2.247298 -0.577047 30.872407 -2.393613 -0.661027 0.000000 -0.000001 0.000000 36.661841 -6.873617 -2.242227 34.810944 -2.662592 -0.834820 36.883858 -2.799152 -0.933592 -0.000005 0.000002 -0.000000 46.445925 -7.737171 -3.616960 42.226275 -3.133689 -1.210275 42.078582 -3.124777 -1.202207 -0.000001 0.000001 -0.000000 0.000000 0.000001 0.000000 0.000000 0.000000 0.000003 0.000001 0.000001 -0.000002 41.965897 35.053702 -23.014963 -0.557553 -5.387099 32.609329 3.426502 26.152503 39.198448 -0.000051 0.000003 7.415868 0.000001 0.000002 0.000000 -30.401563 -45.424558 -70.274844 -0.774283 5.592688 32.049332 -2.052261 -19.069339 -24.314505 0.000000 0.000020 -2.154195 0.000000 -0.000001 0.000000 0.000002 0.000002 -0.000003 -0.000002 -0.000001 0.000002 -0.000000 0.000002 -0.000003 0.000000 -0.000002 -0.000002 0.000002 0.000001 0.000003 0.000000 0.000001 0.000001 
-91.798210 80.289230 89.951096 111.485030 -13.943161 -70.236722 -2.785406 3.758479 3.263789 -6.721280 7.721122 5.928760 -6.709263 7.832062 5.856915 -10.605191 4.983533 2.820055 -24.319947 15.125103 10.019435 -0.000000 0.000001 -0.000001 -0.000004 0.000000 0.000003 0.000000 -0.000003 -0.000002 0.000008 -0.000001 -0.000000 -0.000003 0.000005 0.000003 -0.000002 -0.000000 -0.000006 0.000003 -0.000004 0.000002 -0.000001 0.000000 0.000003 0.000000 0.000001 0.000002 0.000000 0.000002 0.000004 -25.359995 8.081077 1.282048 -33.857852 25.190588 -23.469885 1.624986 0.277887 -2.316579 -14.224517 9.616036 47.828761 -1.744775 -12.177969 -1.643230 9.035586 30.997448 11.724162 15.655264 12.429826 -2.360441 -0.000003 0.000001 0.000002 -33.201322 3.497301 -1.695380 -21.581803 2.158683 -0.411484 -22.285587 2.225479 -0.438399 0.000000 0.000000 -0.000001 -36.560801 5.413375 -2.504783 -34.096239 3.287871 -1.008474 -35.088248 3.371263 -1.066076 -0.000001 -0.000002 -0.000001 -42.699357 6.661853 -3.102178 -39.820225 3.754610 -1.360314 -40.828409 3.833016 -1.427025 0.000000 0.000000 -0.000001 -34.812990 9.547911 -5.377435 -32.233883 3.128608 -0.904229 -41.349167 3.873065 -1.462034 -0.000000 0.000004 -0.000002 -0.000001 -0.000001 0.000001 0.000000 -0.000001 0.000000 -0.000001 -0.000000 -0.000002 -0.000001 -0.000000 -0.000002 17.607372 23.250349 -1.582521 68.734613 50.291107 72.167706 6.628868 51.248497 4.981021 2.516788 27.746142 44.004084 -2.160073 25.347342 -17.850256 -15.177854 -39.781063 17.050797 -14.697220 -0.297090 -7.001360 0.000002 -0.000001 0.000001 13.143766 -4.853691 -0.592568 14.163465 -1.141921 -0.141882 14.154776 -1.141235 -0.141696 0.000000 -0.000001 -0.000002 27.897165 -5.621856 -1.564964 29.328033 -2.284946 -0.597981 31.426875 -2.432197 -0.684371 0.000001 0.000000 0.000000 37.293458 -6.923910 -2.293450 35.456349 -2.705490 -0.865047 37.558090 -2.842774 -0.966776 -0.000001 0.000002 -0.000000 47.238680 -7.783788 -3.688914 43.013704 -3.180750 -1.253634 42.860957 -3.171667 -1.245181 0.000000 0.000000 0.000001 0.000000 0.000000 0.000000 0.000000 0.000000 0.000002 0.000000 0.000001 0.000004 42.413839 34.550530 -22.777739 -0.570779 -3.396058 41.314135 -1.221254 27.980650 35.574482 -0.000039 0.000012 6.241616 -0.000001 -0.000002 -0.000002 -31.529155 -45.103172 -69.226541 -0.504848 5.861104 31.361716 -1.609414 -18.626255 -24.443760 0.000005 -0.000005 -2.122267 0.000000 0.000000 0.000000 -0.000002 -0.000001 -0.000006 0.000003 -0.000000 0.000001 -0.000001 0.000000 0.000002 0.000001 -0.000002 0.000002 -0.000000 -0.000003 0.000002 0.000000 0.000000 0.000003 
-92.354073 80.353714 90.511208 112.508264 -13.623572 -71.600458 -2.517666 3.563572 3.588497 -6.415654 7.608069 6.600838 -6.406499 7.722465 6.525521 -10.985351 5.102233 3.331548 -24.038291 14.975324 10.484547 0.000000 0.000000 0.000001 -0.000002 0.000001 0.000001 0.000002 -0.000003 -0.000003 0.000007 -0.000003 -0.000000 -0.000002 0.000001 0.000001 -0.000001 -0.000000 -0.000001 -0.000001 -0.000001 0.000001 -0.000002 0.000000 0.000002 -0.000004 0.000003 0.000002 -0.000003 0.000001 -0.000001 -24.522963 8.184268 1.188350 -35.930764 27.123185 -23.970523 1.664249 0.298560 -2.367972 -16.937231 13.339317 44.799041 -2.765321 -12.759105 -0.986164 9.952617 33.049545 12.545481 15.995052 13.625372 -1.783430 -0.000001 0.000001 0.000005 -36.548560 3.513295 -1.952627 -24.101400 2.396232 -0.511629 -24.759084 2.457482 -0.539478 0.000000 0.000002 0.000000 -40.452056 5.695127 -2.879711 -38.123449 3.619986 -1.251188 -39.100941 3.697938 -1.313577 -0.000000 0.000002 -0.000001 -47.377845 7.111034 -3.578988 -44.510646 4.109084 -1.682119 -45.487957 4.179558 -1.752762 -0.000003 0.000001 -0.000001 -38.706439 10.428492 -6.181658 -36.083452 3.453908 -1.125324 -46.144707 4.226200 -1.800882 0.000000 0.000000 0.000000 0.000001 0.000002 0.000000 0.000000 0.000001 0.000000 0.000001 0.000001 -0.000003 0.000001 0.000001 -0.000003 18.154216 23.499768 -1.225649 64.345347 48.950694 68.274971 6.406616 50.071298 4.718373 1.621964 29.478686 42.058492 -2.165313 25.509558 -17.879182 -15.332755 -40.024278 17.197822 -14.697818 -0.222882 -7.035778 0.000002 -0.000002 -0.000002 13.236418 -4.869905 -0.597868 14.297751 -1.152525 -0.144563 14.284138 -1.151443 -0.144274 -0.000001 -0.000003 0.000000 28.174226 -5.647854 -1.585366 29.644285 -2.307342 -0.610651 31.748635 -2.454474 -0.698084 0.000001 0.000001 -0.000001 37.669770 -6.941961 -2.324128 35.845133 -2.731166 -0.883480 37.957509 -2.868448 -0.986679 -0.000003 -0.000001 0.000001 47.696794 -7.793256 -3.725654 43.490861 -3.208961 -1.280231 43.333479 -3.199675 -1.271434 0.000000 0.000001 0.000000 0.000001 0.000000 0.000000 -0.000001 0.000000 0.000001 -0.000002 0.000002 -0.000000 42.310541 33.876658 -22.328844 -0.363906 -1.567354 49.943305 -2.670462 28.121948 33.368422 -0.000002 0.000006 4.658319 0.000001 0.000000 -0.000001 -32.629255 -44.715965 -68.159078 -0.208064 6.158976 30.647247 -1.193708 -18.173314 -24.480081 0.000007 -0.000004 -2.093672 0.000000 -0.000003 0.000000 0.000001 0.000001 -0.000001 -0.000000 0.000001 -0.000002 0.000001 0.000002 -0.000002 -0.000000 -0.000001 0.000005 0.000000 0.000002 0.000000 0.000001 0.000002 0.000002 
